:SAMPLES-PER-SECOND 30
:FULLY-SPECIFIED
:DEGREES
225
root  -56.4901 39.6865 -3.06466 -11.6307 -82.9412 10.8025
RightUpLeg  -10.3374 -5.4525 -3.00951
RightLeg  22.23 1.23968 0.145971
RightFoot  -10.9193 -0.0739215 -0.0684837
RightToes  -4.65661e-009 0 -3.6325e-017
Spine  19.331 2.20404 24.1611
Spine1  6.10787 9.93858 -16.0227
HEad  -16.5043 -16.4217 -4.57038
LeftShoulder1  0.242225 2.84771 -30.8315
LeftArm  7.32929 9.9355 -41.1602
LeftForeArm  26.4105 -31.5731 -5.43891
LeftHand  -0.0299996 5.05353 1.28071
RightShoulder  0.154553 -2.9348 21.9923
RightArm  -5.16245 40.3221 38.6947
RightForeArm  8.733 24.5252 4.80337
RightHand  -0.643415 8.41851 -5.79635
LeftUpLeg  -17.7876 -0.743862 3.51064
LeftLeg  25.07 -4.3506 -1.8891
LeftFoot  -2.01579 0.3601 -4.2318
LeftToes  9.86798e-010 -1.28139e-010 1.4132e-011
226
root  -56.918 39.5871 -3.06872 -10.1953 -82.6708 8.25674
RightUpLeg  -8.69792 -6.28898 -2.88891
RightLeg  23.0242 1.70699 0.373047
RightFoot  -12.2834 -0.0846444 -0.211143
RightToes  -4.65661e-009 0 -3.6325e-017
Spine  17.9053 2.15817 24.0732
Spine1  6.45324 9.473 -15.2067
HEad  -14.8438 -14.7743 -5.2379
LeftShoulder1  0.128309 3.15958 -31.0892
LeftArm  7.00328 11.1451 -40.8345
LeftForeArm  25.5963 -31.0059 -5.34892
LeftHand  -0.0276489 5.42564 1.27285
RightShoulder  -0.00865955 -3.50526 23.7133
RightArm  0.243038 35.3347 40.4127
RightForeArm  7.99479 25.4594 5.03922
RightHand  -0.841324 7.57843 -7.86748
LeftUpLeg  -19.4052 -0.283146 3.63607
LeftLeg  30.9526 -2.83329 -1.49275
LeftFoot  -0.685308 0.612181 -6.50973
LeftToes  9.86798e-010 -1.28139e-010 1.4132e-011
227
root  -57.4017 39.535 -3.08896 -8.45474 -82.419 5.25644
RightUpLeg  -6.52416 -6.46428 -2.60077
RightLeg  23.1955 1.60032 0.234595
RightFoot  -13.3277 -0.094351 -0.234334
RightToes  -4.65661e-009 0 -3.6325e-017
Spine  16.676 2.13234 23.6878
Spine1  6.82368 9.06008 -14.321
HEad  -13.7436 -13.2484 -5.54228
LeftShoulder1  0.047446 3.37525 -31.2011
LeftArm  6.59019 12.3681 -40.7313
LeftForeArm  25.2946 -30.0956 -5.15052
LeftHand  -0.0281387 5.6556 1.43325
RightShoulder  -0.174927 -4.02973 25.4727
RightArm  5.59103 29.3822 41.5467
RightForeArm  7.85996 25.4637 5.03984
RightHand  -0.746971 8.02058 -6.81781
LeftUpLeg  -20.6414 0.169265 3.83347
LeftLeg  35.9782 -1.81898 -1.07807
LeftFoot  0.613779 0.733076 -7.03508
LeftToes  9.86798e-010 -1.28139e-010 1.4132e-011
228
root  -57.9126 39.5648 -3.08526 -9.59641 -82.6077 5.59021
RightUpLeg  -4.46789 -6.98578 -2.79383
RightLeg  22.6318 2.29903 0.4676
RightFoot  -13.9494 -0.103604 -0.405745
RightToes  -4.65661e-009 0 -3.6325e-017
Spine  15.4813 2.34242 22.6465
Spine1  7.07703 8.78044 -13.44
HEad  -12.65 -12.1817 -5.65242
LeftShoulder1  -0.0959336 3.75565 -32.108
LeftArm  7.23599 13.3211 -39.7076
LeftForeArm  24.655 -29.1063 -4.95601
LeftHand  -0.0342009 6.41639 -0.0508972
RightShoulder  -0.308072 -4.40917 26.8052
RightArm  10.9948 22.9375 42.4808
RightForeArm  5.95083 24.0144 4.82337
RightHand  -0.694449 7.6396 -6.54806
LeftUpLeg  -21.4615 0.808362 3.75017
LeftLeg  38.6363 -2.12627 -1.46368
LeftFoot  0.0284667 0.564835 -5.6758
LeftToes  9.86798e-010 -1.28139e-010 1.4132e-011
229
root  -58.4385 39.6144 -3.08925 -11.195 -82.6217 7.00705
RightUpLeg  -2.88646 -7.64183 -3.11289
RightLeg  21.7157 2.96353 0.649445
RightFoot  -14.4381 -0.110666 -0.483924
RightToes  -4.65661e-009 0 -3.6325e-017
Spine  14.2031 2.4501 21.1196
Spine1  6.79651 8.22765 -12.7184
HEad  -11.9122 -11.1146 -5.55808
LeftShoulder1  -0.221906 4.08272 -32.1892
LeftArm  7.73793 14.6652 -39.3454
LeftForeArm  24.0138 -27.9262 -4.72448
LeftHand  -0.0344553 5.85672 -0.287487
RightShoulder  -0.457155 -4.80247 28.291
RightArm  16.0675 16.9666 43.5159
RightForeArm  4.65783 19.9044 4.85486
RightHand  -0.498716 7.99603 -4.66819
LeftUpLeg  -22.2455 1.21264 3.70871
LeftLeg  38.3166 -3.42495 -2.53218
LeftFoot  -0.580431 0.523087 -5.52296
LeftToes  9.86798e-010 -1.28139e-010 1.4132e-011
230
root  -59.0073 39.6644 -3.058 -13.1929 -82.7808 9.08759
RightUpLeg  -1.53297 -8.2727 -3.56352
RightLeg  20.8 3.9007 0.892333
RightFoot  -14.9121 -0.114657 -0.440643
RightToes  -4.65661e-009 0 -3.6325e-017
Spine  12.4516 2.66975 20.0354
Spine1  7.18387 7.96203 -12.3841
HEad  -11.4714 -10.4106 -5.93167
LeftShoulder1  -0.324089 4.34266 -32.5087
LeftArm  8.47554 15.487 -38.8338
LeftForeArm  23.039 -26.1697 -4.38645
LeftHand  -0.0286642 5.04204 0.298053
RightShoulder  -0.619188 -5.21125 29.5012
RightArm  15.7952 11.5829 44.3561
RightForeArm  7.18911 12.8584 6.47436
RightHand  -0.276625 6.84108 -2.97616
LeftUpLeg  -22.4185 1.52007 3.79604
LeftLeg  35.1537 -4.17959 -2.81728
LeftFoot  -1.38104 0.519533 -5.86101
LeftToes  9.86798e-010 -1.28139e-010 1.4132e-011
231
root  -59.5749 39.7539 -3.04715 -17.4302 -83.1451 13.4688
RightUpLeg  -0.0787752 -8.62079 -4.14035
RightLeg  19.4371 4.69054 0.968855
RightFoot  -15.0787 -0.12215 -0.62039
RightToes  -4.65661e-009 0 -3.6325e-017
Spine  10.9678 3.01396 18.2556
Spine1  7.53814 7.73994 -11.7314
HEad  -11.0598 -9.95832 -6.06204
LeftShoulder1  -0.349768 4.40566 -32.6586
LeftArm  8.39495 16.747 -38.628
LeftForeArm  23.085 -25.0229 -4.13176
LeftHand  -0.0406054 5.70061 -0.561591
RightShoulder  -0.76678 -5.56242 30.5908
RightArm  13.1262 6.48522 45.0375
RightForeArm  11.9378 4.79559 7.55979
RightHand  -0.150621 5.05158 -1.9849
LeftUpLeg  -21.8872 1.7163 3.88786
LeftLeg  29.6848 -4.1828 -2.25231
LeftFoot  -1.56307 0.496759 -5.69568
LeftToes  9.86798e-010 -1.28139e-010 1.4132e-011
232
root  -60.1666 39.8235 -2.97419 -19.4971 -83.2483 15.5962
RightUpLeg  1.56025 -8.99204 -4.6294
RightLeg  18.0647 5.35608 1.01768
RightFoot  -15.0403 -0.13184 -0.932586
RightToes  -4.65661e-009 0 -3.6325e-017
Spine  10.2036 2.97519 16.8054
Spine1  6.91533 7.19234 -11.1826
HEad  -10.4184 -9.43024 -6.95476
LeftShoulder1  -0.418605 4.57853 -32.7744
LeftArm  9.15248 18.0185 -38.3201
LeftForeArm  22.7257 -23.6559 -3.90169
LeftHand  -0.0563711 6.918 -1.49606
RightShoulder  -0.803727 -5.62966 31.1516
RightArm  11.7113 0.18509 45.523
RightForeArm  18.1076 -0.898325 6.77744
RightHand  -0.0693149 2.11603 -1.25535
LeftUpLeg  -21.1529 1.49279 4.27165
LeftLeg  23.5816 -4.06083 -1.61499
LeftFoot  -1.41218 0.505742 -5.72159
LeftToes  9.86798e-010 -1.28139e-010 1.4132e-011
